<svg xmlns="http://www.w3.org/2000/svg" xmlns:xlink="http://www.w3.org/1999/xlink" width="500" zoomAndPan="magnify" viewBox="0 0 375 374.999991" height="500" preserveAspectRatio="xMidYMid meet" version="1.0"><defs><g/></defs><g fill="#ffffff" fill-opacity="1"><g transform="translate(22.413398, 269.212898)"><g><path d="M 205.484375 -0.941406 C 197.027344 -0.941406 187.316406 -7.832031 184.183594 -16.289062 L 169.773438 -53.25 C 169.773438 -53.5625 169.773438 -53.875 169.773438 -54.191406 C 166.015625 -62.960938 159.125 -70.164062 150.355469 -73.925781 C 141.582031 -77.683594 131.558594 -77.683594 122.789062 -74.238281 C 114.644531 -71.417969 107.753906 -65.464844 103.679688 -57.636719 C 100.550781 -51.683594 95.539062 -47.300781 89.273438 -45.105469 C 82.382812 -42.285156 74.550781 -42.601562 67.660156 -45.417969 C 60.769531 -48.550781 55.441406 -54.191406 52.625 -61.394531 C 47.300781 -75.804688 54.503906 -92.09375 68.914062 -97.730469 C 78.9375 -101.488281 89.898438 -99.296875 97.730469 -92.71875 C 102.742188 -87.707031 109.632812 -84.886719 116.835938 -84.886719 C 120.28125 -84.886719 123.730469 -85.515625 127.175781 -86.765625 C 127.488281 -87.078125 127.800781 -87.078125 127.800781 -87.394531 C 133.125 -89.585938 137.824219 -93.34375 140.957031 -98.355469 C 145.34375 -105.5625 146.28125 -114.644531 143.460938 -122.789062 L 105.5625 -221.457031 C 105.246094 -221.457031 105.246094 -221.773438 105.246094 -221.773438 L 104.933594 -221.773438 C 104.933594 -221.773438 104.933594 -221.773438 104.933594 -222.085938 C 104.933594 -222.085938 104.621094 -222.085938 104.621094 -222.085938 C 104.308594 -222.085938 103.996094 -222.085938 103.996094 -221.773438 C 103.679688 -221.773438 103.679688 -221.457031 103.367188 -221.457031 L 103.054688 -219.894531 L 97.730469 -206.421875 L 25.058594 -16.289062 C 21.613281 -7.832031 12.214844 -0.941406 3.757812 -0.941406 C 3.132812 -0.941406 2.820312 -0.3125 2.820312 0.3125 C 2.820312 0.941406 3.132812 1.253906 3.757812 1.253906 L 35.710938 1.253906 C 36.335938 1.253906 36.960938 0.941406 36.960938 0.3125 C 36.960938 -0.3125 36.335938 -0.941406 35.710938 -0.941406 C 32.578125 -0.625 29.445312 -2.191406 27.566406 -4.699219 C 25.371094 -8.144531 25.371094 -11.902344 26.9375 -15.347656 L 48.863281 -72.359375 C 48.550781 -68.285156 49.179688 -64.214844 50.746094 -60.453125 C 53.5625 -52.9375 59.515625 -46.984375 66.71875 -43.539062 C 70.476562 -41.972656 74.863281 -41.035156 79.25 -41.035156 C 82.695312 -41.035156 86.453125 -41.660156 89.898438 -42.914062 C 96.476562 -45.417969 102.117188 -50.429688 105.5625 -56.382812 C 105.5625 -56.695312 105.5625 -56.695312 105.5625 -56.695312 C 109.320312 -63.902344 115.898438 -69.539062 123.414062 -72.359375 C 129.367188 -74.550781 135.945312 -74.550781 141.582031 -72.042969 C 147.535156 -69.226562 151.921875 -64.527344 154.113281 -58.886719 C 154.113281 -58.886719 154.113281 -58.574219 154.113281 -58.574219 L 170.714844 -15.347656 C 172.28125 -11.902344 172.28125 -8.144531 170.402344 -4.699219 C 168.207031 -2.191406 165.074219 -0.625 161.945312 -0.941406 C 161.316406 -0.941406 160.691406 -0.3125 160.691406 0.3125 C 160.691406 0.625 161.316406 1.253906 161.945312 1.253906 L 189.195312 1.253906 C 189.195312 1.253906 189.195312 1.253906 189.507812 1.253906 L 205.484375 1.253906 C 205.796875 1.253906 206.421875 0.625 206.421875 0.3125 C 206.421875 0 206.421875 -0.3125 206.109375 -0.625 C 205.796875 -0.941406 205.484375 -0.941406 205.484375 -0.941406 Z M 98.667969 -202.976562 L 135.003906 -108.695312 C 135.003906 -108.378906 135.003906 -108.378906 135.003906 -108.378906 C 137.824219 -100.863281 134.378906 -92.40625 127.175781 -89.273438 C 126.859375 -88.960938 126.546875 -88.960938 126.234375 -88.960938 C 117.152344 -85.199219 106.5 -87.078125 99.296875 -94.285156 C 99.296875 -94.285156 98.984375 -94.285156 98.984375 -94.285156 C 90.527344 -101.488281 78.621094 -103.679688 68.285156 -99.609375 C 63.273438 -97.730469 59.203125 -94.910156 55.757812 -90.839844 Z M 98.667969 -202.976562 "/></g></g></g><g fill="#ffffff" fill-opacity="1"><g transform="translate(196.873133, 269.212898)"><g><path d="M 148.789062 -185.125 L 133.125 -218.328125 C 132.8125 -218.640625 132.5 -218.953125 132.1875 -218.953125 C 132.1875 -218.953125 40.40625 -218.953125 40.40625 -218.953125 C 40.40625 -218.953125 29.757812 -218.953125 29.757812 -218.953125 L 13.78125 -218.953125 C 13.15625 -218.953125 12.84375 -218.328125 12.84375 -218.011719 C 12.84375 -217.386719 13.15625 -216.761719 13.78125 -216.761719 C 21.925781 -216.761719 28.816406 -210.183594 28.816406 -202.039062 L 28.816406 -148.160156 C 28.816406 -140.957031 33.203125 -134.378906 40.09375 -131.871094 C 41.660156 -131.246094 43.539062 -130.933594 45.105469 -130.933594 C 45.417969 -130.933594 45.734375 -130.933594 46.046875 -130.933594 C 53.25 -130.933594 59.515625 -135.320312 62.019531 -142.210938 C 66.71875 -154.425781 78.308594 -162.257812 91.152344 -162.257812 C 108.378906 -162.257812 122.164062 -148.472656 122.164062 -131.246094 C 122.164062 -114.019531 108.378906 -100.234375 91.152344 -100.234375 C 84.261719 -100.234375 77.683594 -102.429688 72.359375 -106.5 C 67.660156 -109.632812 62.335938 -111.199219 56.695312 -111.199219 C 56.382812 -111.199219 56.070312 -111.199219 55.757812 -111.199219 C 50.117188 -110.886719 44.480469 -109.007812 39.78125 -105.5625 C 32.890625 -100.234375 28.816406 -92.09375 28.816406 -83.320312 L 28.816406 -15.660156 C 28.816406 -7.519531 21.925781 -0.941406 13.78125 -0.941406 C 13.15625 -0.941406 12.84375 -0.3125 12.84375 0 C 12.84375 0.625 13.15625 1.253906 13.78125 1.253906 C 13.78125 1.253906 29.757812 1.253906 29.757812 1.253906 C 29.757812 1.253906 40.40625 1.253906 40.40625 1.253906 L 56.382812 1.253906 C 57.007812 1.253906 57.636719 0.625 57.636719 0 C 57.636719 -0.3125 57.007812 -0.941406 56.382812 -0.941406 C 48.238281 -0.941406 41.660156 -7.519531 41.660156 -15.976562 L 41.660156 -93.972656 C 41.660156 -102.429688 48.238281 -109.007812 56.695312 -109.007812 C 62.019531 -109.007812 67.03125 -107.441406 71.105469 -104.621094 C 77.054688 -100.234375 83.949219 -98.042969 91.152344 -98.042969 C 109.632812 -98.042969 124.355469 -112.765625 124.355469 -131.246094 C 124.355469 -149.414062 109.632812 -164.449219 91.152344 -164.449219 C 77.371094 -164.449219 64.839844 -155.679688 60.140625 -142.835938 C 57.949219 -136.886719 52.3125 -133.125 46.046875 -133.125 C 43.539062 -133.125 41.660156 -135.003906 41.660156 -137.511719 L 41.660156 -201.726562 C 41.660156 -210.183594 48.238281 -216.761719 56.382812 -216.761719 L 98.984375 -216.761719 C 116.835938 -216.761719 138.449219 -202.039062 146.910156 -184.183594 C 146.910156 -183.871094 147.222656 -183.558594 147.847656 -183.558594 C 147.847656 -183.558594 148.160156 -183.558594 148.160156 -183.558594 C 148.472656 -183.871094 148.789062 -183.871094 148.789062 -184.183594 C 148.789062 -184.496094 148.789062 -184.808594 148.789062 -185.125 Z M 148.789062 -185.125 "/></g></g></g><g fill="#ffffff" fill-opacity="1"><g transform="translate(70.726764, 339.405317)"><g><path d="M 10.203125 -24.703125 L 10.921875 -24.703125 L 20.0625 0 L 17.296875 0 L 15.046875 -6.296875 L 5.9375 -6.296875 L 3.6875 0 L 1.078125 0 Z M 14.21875 -8.625 L 10.5 -19.015625 L 6.765625 -8.625 Z M 14.21875 -8.625 "/></g></g></g><g fill="#ffffff" fill-opacity="1"><g transform="translate(96.478498, 339.405317)"><g><path d="M 5.65625 -18.65625 L 5.65625 0 L 3.21875 0 L 3.21875 -24.703125 L 3.9375 -24.703125 L 20.125 -5.34375 L 20.125 -24 L 22.5625 -24 L 22.5625 0.71875 L 21.84375 0.71875 Z M 5.65625 -18.65625 "/></g></g></g><g fill="#ffffff" fill-opacity="1"><g transform="translate(126.886103, 339.405317)"><g><path d="M 3.21875 -24 L 5.734375 -24 L 5.734375 0 L 3.21875 0 Z M 3.21875 -24 "/></g></g></g><g fill="#ffffff" fill-opacity="1"><g transform="translate(140.460985, 339.405317)"><g><path d="M 8.984375 0.359375 C 7.359375 0.359375 5.859375 -0.0234375 4.484375 -0.796875 C 3.117188 -1.578125 1.984375 -2.695312 1.078125 -4.15625 L 3.015625 -5.734375 C 4.679688 -3.203125 6.6875 -1.9375 9.03125 -1.9375 C 10.4375 -1.9375 11.566406 -2.316406 12.421875 -3.078125 C 13.285156 -3.835938 13.71875 -4.851562 13.71875 -6.125 C 13.71875 -7.21875 13.328125 -8.160156 12.546875 -8.953125 C 11.773438 -9.742188 10.53125 -10.484375 8.8125 -11.171875 C 6.632812 -12.003906 5.0625 -12.984375 4.09375 -14.109375 C 3.132812 -15.234375 2.65625 -16.570312 2.65625 -18.125 C 2.65625 -19.050781 2.804688 -19.894531 3.109375 -20.65625 C 3.421875 -21.425781 3.863281 -22.082031 4.4375 -22.625 C 5.007812 -23.175781 5.695312 -23.601562 6.5 -23.90625 C 7.300781 -24.207031 8.191406 -24.359375 9.171875 -24.359375 C 11.910156 -24.359375 14.175781 -23.140625 15.96875 -20.703125 L 14.03125 -19.125 C 13.320312 -20.125 12.566406 -20.859375 11.765625 -21.328125 C 10.960938 -21.796875 10.082031 -22.03125 9.125 -22.03125 C 7.914062 -22.03125 6.953125 -21.691406 6.234375 -21.015625 C 5.515625 -20.347656 5.15625 -19.457031 5.15625 -18.34375 C 5.15625 -17.257812 5.519531 -16.34375 6.25 -15.59375 C 6.976562 -14.84375 8.191406 -14.132812 9.890625 -13.46875 C 12.054688 -12.632812 13.648438 -11.632812 14.671875 -10.46875 C 15.703125 -9.3125 16.21875 -7.9375 16.21875 -6.34375 C 16.21875 -5.363281 16.039062 -4.460938 15.6875 -3.640625 C 15.332031 -2.816406 14.832031 -2.101562 14.1875 -1.5 C 13.539062 -0.90625 12.773438 -0.445312 11.890625 -0.125 C 11.003906 0.195312 10.035156 0.359375 8.984375 0.359375 Z M 8.984375 0.359375 "/></g></g></g><g fill="#ffffff" fill-opacity="1"><g transform="translate(163.096888, 339.405317)"><g><path d="M 8.984375 0.359375 C 7.359375 0.359375 5.859375 -0.0234375 4.484375 -0.796875 C 3.117188 -1.578125 1.984375 -2.695312 1.078125 -4.15625 L 3.015625 -5.734375 C 4.679688 -3.203125 6.6875 -1.9375 9.03125 -1.9375 C 10.4375 -1.9375 11.566406 -2.316406 12.421875 -3.078125 C 13.285156 -3.835938 13.71875 -4.851562 13.71875 -6.125 C 13.71875 -7.21875 13.328125 -8.160156 12.546875 -8.953125 C 11.773438 -9.742188 10.53125 -10.484375 8.8125 -11.171875 C 6.632812 -12.003906 5.0625 -12.984375 4.09375 -14.109375 C 3.132812 -15.234375 2.65625 -16.570312 2.65625 -18.125 C 2.65625 -19.050781 2.804688 -19.894531 3.109375 -20.65625 C 3.421875 -21.425781 3.863281 -22.082031 4.4375 -22.625 C 5.007812 -23.175781 5.695312 -23.601562 6.5 -23.90625 C 7.300781 -24.207031 8.191406 -24.359375 9.171875 -24.359375 C 11.910156 -24.359375 14.175781 -23.140625 15.96875 -20.703125 L 14.03125 -19.125 C 13.320312 -20.125 12.566406 -20.859375 11.765625 -21.328125 C 10.960938 -21.796875 10.082031 -22.03125 9.125 -22.03125 C 7.914062 -22.03125 6.953125 -21.691406 6.234375 -21.015625 C 5.515625 -20.347656 5.15625 -19.457031 5.15625 -18.34375 C 5.15625 -17.257812 5.519531 -16.34375 6.25 -15.59375 C 6.976562 -14.84375 8.191406 -14.132812 9.890625 -13.46875 C 12.054688 -12.632812 13.648438 -11.632812 14.671875 -10.46875 C 15.703125 -9.3125 16.21875 -7.9375 16.21875 -6.34375 C 16.21875 -5.363281 16.039062 -4.460938 15.6875 -3.640625 C 15.332031 -2.816406 14.832031 -2.101562 14.1875 -1.5 C 13.539062 -0.90625 12.773438 -0.445312 11.890625 -0.125 C 11.003906 0.195312 10.035156 0.359375 8.984375 0.359375 Z M 8.984375 0.359375 "/></g></g></g><g fill="#ffffff" fill-opacity="1"><g transform="translate(185.732785, 339.405317)"><g><path d="M 10.203125 -24.703125 L 10.921875 -24.703125 L 20.0625 0 L 17.296875 0 L 15.046875 -6.296875 L 5.9375 -6.296875 L 3.6875 0 L 1.078125 0 Z M 14.21875 -8.625 L 10.5 -19.015625 L 6.765625 -8.625 Z M 14.21875 -8.625 "/></g></g></g><g fill="#ffffff" fill-opacity="1"><g transform="translate(211.484515, 339.405317)"><g/></g></g><g fill="#ffffff" fill-opacity="1"><g transform="translate(223.984954, 339.405317)"><g><path d="M 3.21875 -24 L 15.578125 -24 L 15.578125 -21.671875 L 5.734375 -21.671875 L 5.734375 -12.890625 L 13.25 -12.890625 L 13.25 -10.5625 L 5.734375 -10.5625 L 5.734375 0 L 3.21875 0 Z M 3.21875 -24 "/></g></g></g><g fill="#ffffff" fill-opacity="1"><g transform="translate(245.618033, 339.405317)"><g><path d="M 10.203125 -24.703125 L 10.921875 -24.703125 L 20.0625 0 L 17.296875 0 L 15.046875 -6.296875 L 5.9375 -6.296875 L 3.6875 0 L 1.078125 0 Z M 14.21875 -8.625 L 10.5 -19.015625 L 6.765625 -8.625 Z M 14.21875 -8.625 "/></g></g></g><g fill="#ffffff" fill-opacity="1"><g transform="translate(271.369763, 339.405317)"><g><path d="M 3.21875 -24 L 5.734375 -24 L 5.734375 0 L 3.21875 0 Z M 3.21875 -24 "/></g></g></g><g fill="#ffffff" fill-opacity="1"><g transform="translate(284.94464, 339.405317)"><g><path d="M 3.21875 -24 L 5.734375 -24 L 5.734375 -12.96875 L 15.546875 -24 L 18.65625 -24 L 8.421875 -12.5 L 19.125 0 L 15.796875 0 L 5.734375 -11.75 L 5.734375 0 L 3.21875 0 Z M 3.21875 -24 "/></g></g></g></svg>