<svg xmlns="http://www.w3.org/2000/svg" xmlns:xlink="http://www.w3.org/1999/xlink" width="500" zoomAndPan="magnify" viewBox="0 0 375 149.999998" height="200" preserveAspectRatio="xMidYMid meet" version="1.0"><defs><g/></defs><rect x="-37.5" width="450" fill="#ffffff" y="-15" height="179.999997" fill-opacity="1"/><rect x="-37.5" width="450" fill="#ffffff" y="-15" height="179.999997" fill-opacity="1"/><g fill="#000000" fill-opacity="1"><g transform="translate(2.076982, 104.074719)"><g><path d="M 129.03125 -77.820312 L 117.675781 -77.820312 C 117.453125 -77.820312 117.230469 -77.597656 117.230469 -77.484375 C 117.230469 -77.261719 117.453125 -77.039062 117.675781 -77.039062 C 118.789062 -77.152344 119.902344 -76.59375 120.683594 -75.703125 C 121.351562 -74.480469 121.351562 -73.144531 120.792969 -71.917969 L 95.300781 -5.234375 L 69.691406 -71.808594 L 69.691406 -71.917969 C 69.136719 -73.144531 69.246094 -74.480469 69.914062 -75.703125 C 70.582031 -76.59375 71.695312 -77.152344 72.921875 -77.039062 C 73.03125 -77.039062 73.253906 -77.261719 73.253906 -77.484375 C 73.253906 -77.597656 73.03125 -77.820312 72.921875 -77.820312 C 72.921875 -77.820312 67.132812 -77.820312 67.132812 -77.820312 C 67.132812 -77.820312 63.125 -77.820312 63.125 -77.820312 L 57.445312 -77.820312 C 57.222656 -77.820312 57 -77.597656 57 -77.484375 C 57 -77.261719 57.222656 -77.039062 57.445312 -77.039062 C 60.230469 -77.039062 63.347656 -74.925781 64.683594 -72.140625 L 39.078125 -5.234375 L 13.472656 -71.808594 L 13.472656 -71.917969 C 12.914062 -73.144531 13.027344 -74.480469 13.695312 -75.703125 C 14.363281 -76.59375 15.476562 -77.152344 16.699219 -77.039062 C 16.921875 -77.039062 17.035156 -77.261719 17.035156 -77.484375 C 17.035156 -77.597656 16.921875 -77.820312 16.699219 -77.820312 C 16.699219 -77.820312 11.023438 -77.820312 11.023438 -77.820312 C 11.023438 -77.820312 6.902344 -77.820312 6.902344 -77.820312 L 1.226562 -77.820312 C 1.003906 -77.820312 0.890625 -77.597656 0.890625 -77.484375 C 0.890625 -77.261719 1.003906 -77.039062 1.226562 -77.039062 C 4.230469 -77.039062 7.570312 -74.589844 8.796875 -71.585938 L 36.738281 1.335938 C 36.738281 1.335938 36.738281 1.449219 36.851562 1.449219 C 36.851562 1.449219 36.851562 1.449219 36.851562 1.558594 C 36.960938 1.558594 36.960938 1.558594 37.074219 1.558594 C 37.074219 1.558594 37.183594 1.558594 37.296875 1.449219 C 37.296875 1.449219 37.296875 1.335938 37.40625 1.335938 L 37.40625 1.113281 L 39.410156 -4.007812 L 65.128906 -71.140625 L 92.851562 1.335938 C 92.960938 1.335938 92.960938 1.449219 92.960938 1.449219 C 92.960938 1.449219 93.074219 1.449219 93.074219 1.449219 C 93.074219 1.449219 93.074219 1.449219 93.074219 1.558594 C 93.183594 1.558594 93.183594 1.558594 93.183594 1.558594 C 93.296875 1.558594 93.40625 1.558594 93.40625 1.449219 C 93.519531 1.449219 93.519531 1.335938 93.519531 1.335938 C 93.519531 1.335938 93.628906 1.335938 93.628906 1.335938 L 93.628906 1.113281 L 95.632812 -4.007812 L 121.574219 -71.585938 C 122.6875 -74.589844 126.027344 -77.039062 129.03125 -77.039062 C 129.253906 -77.039062 129.476562 -77.261719 129.476562 -77.484375 C 129.476562 -77.597656 129.253906 -77.820312 129.03125 -77.820312 Z M 129.03125 -77.820312 "/></g></g></g><g fill="#000000" fill-opacity="1"><g transform="translate(120.083959, 104.074719)"><g><path d="M 50.433594 -24.382812 L 23.824219 -11.914062 C 23.601562 -11.800781 23.492188 -11.578125 23.601562 -11.46875 C 23.601562 -11.246094 23.824219 -11.246094 23.9375 -11.246094 C 23.9375 -11.246094 24.046875 -11.246094 24.046875 -11.246094 L 49.097656 -22.933594 C 49.765625 -23.269531 50.210938 -23.492188 50.765625 -23.714844 L 54.441406 -25.496094 C 60.339844 -28.277344 62.789062 -35.402344 60.007812 -41.304688 L 60.007812 -41.414062 C 55.109375 -50.320312 46.089844 -56.109375 35.960938 -56.777344 C 35.625 -56.777344 35.292969 -56.777344 34.957031 -56.777344 L 33.511719 -56.777344 C 17.703125 -56.222656 5.121094 -43.417969 5.121094 -27.609375 C 5.121094 -11.800781 17.703125 1.113281 33.511719 1.558594 L 34.289062 1.558594 C 41.972656 1.558594 49.429688 -1.449219 54.886719 -7.015625 C 54.996094 -7.125 54.996094 -7.347656 54.886719 -7.460938 C 54.773438 -7.683594 54.441406 -7.683594 54.328125 -7.460938 C 48.984375 -2.117188 41.75 0.890625 34.289062 0.78125 L 33.511719 0.78125 C 19.816406 0.335938 9.019531 -12.136719 9.019531 -27.609375 C 9.019531 -43.085938 19.816406 -55.554688 33.511719 -56 L 34.957031 -56 C 44.421875 -55.664062 52.882812 -49.542969 57 -39.855469 C 59.449219 -33.84375 56.777344 -27.722656 50.433594 -24.382812 Z M 50.433594 -24.382812 "/></g></g></g><g fill="#000000" fill-opacity="1"><g transform="translate(173.1865, 104.074719)"><g><path d="M 16.03125 -0.335938 C 14.027344 -0.335938 12.359375 -2.003906 12.359375 -4.007812 L 12.359375 -78.488281 C 12.359375 -78.597656 12.359375 -78.710938 12.246094 -78.820312 C 12.136719 -78.933594 12.023438 -78.933594 11.914062 -78.933594 L 9.242188 -78.488281 L 5.121094 -77.820312 C 5.011719 -77.820312 4.789062 -77.597656 4.898438 -77.375 C 4.898438 -77.152344 5.011719 -77.039062 5.234375 -77.039062 C 7.238281 -77.039062 8.90625 -75.371094 8.90625 -73.367188 L 8.90625 -4.007812 C 8.90625 -2.003906 7.238281 -0.335938 5.234375 -0.335938 C 5.011719 -0.335938 4.898438 -0.113281 4.898438 0 C 4.898438 0.222656 5.011719 0.445312 5.234375 0.445312 L 16.03125 0.445312 C 16.253906 0.445312 16.476562 0.222656 16.476562 0 C 16.476562 0 16.367188 -0.113281 16.367188 -0.222656 C 16.253906 -0.335938 16.144531 -0.335938 16.03125 -0.335938 Z M 16.03125 -0.335938 "/></g></g></g><g fill="#000000" fill-opacity="1"><g transform="translate(182.202996, 104.074719)"><g><path d="M 16.03125 -0.335938 C 14.027344 -0.335938 12.359375 -2.003906 12.359375 -4.007812 L 12.359375 -78.488281 C 12.359375 -78.597656 12.359375 -78.710938 12.246094 -78.820312 C 12.136719 -78.933594 12.023438 -78.933594 11.914062 -78.933594 L 9.242188 -78.488281 L 5.121094 -77.820312 C 5.011719 -77.820312 4.789062 -77.597656 4.898438 -77.375 C 4.898438 -77.152344 5.011719 -77.039062 5.234375 -77.039062 C 7.238281 -77.039062 8.90625 -75.371094 8.90625 -73.367188 L 8.90625 -4.007812 C 8.90625 -2.003906 7.238281 -0.335938 5.234375 -0.335938 C 5.011719 -0.335938 4.898438 -0.113281 4.898438 0 C 4.898438 0.222656 5.011719 0.445312 5.234375 0.445312 L 16.03125 0.445312 C 16.253906 0.445312 16.476562 0.222656 16.476562 0 C 16.476562 0 16.367188 -0.113281 16.367188 -0.222656 C 16.253906 -0.335938 16.144531 -0.335938 16.03125 -0.335938 Z M 47.984375 -0.335938 C 45.867188 -0.335938 42.972656 -2.003906 41.527344 -4.230469 L 28.5 -23.714844 C 27.945312 -24.605469 27.054688 -25.160156 25.941406 -25.382812 C 24.9375 -25.605469 23.824219 -25.382812 22.933594 -24.828125 C 22.265625 -24.382812 21.820312 -23.714844 21.488281 -23.046875 C 20.929688 -21.710938 19.707031 -20.929688 18.371094 -20.929688 C 16.476562 -20.929688 15.03125 -22.488281 15.03125 -24.269531 C 15.03125 -25.273438 15.476562 -26.164062 16.144531 -26.941406 L 40.300781 -51.101562 C 42.417969 -53.214844 45.867188 -54.886719 47.984375 -54.886719 C 48.207031 -54.886719 48.429688 -55.109375 48.429688 -55.332031 C 48.429688 -55.554688 48.207031 -55.664062 47.984375 -55.664062 L 39.855469 -55.664062 C 39.632812 -55.664062 39.523438 -55.554688 39.523438 -55.332031 C 39.523438 -55.109375 39.632812 -54.886719 39.855469 -54.886719 C 40.300781 -54.886719 40.96875 -54.886719 41.082031 -54.441406 C 41.304688 -53.996094 41.082031 -52.882812 39.632812 -51.433594 L 15.585938 -27.386719 C 14.808594 -26.609375 14.25 -25.496094 14.25 -24.269531 C 14.25 -22.042969 16.144531 -20.152344 18.371094 -20.152344 C 20.039062 -20.152344 21.488281 -21.152344 22.15625 -22.710938 C 22.378906 -23.269531 22.824219 -23.824219 23.378906 -24.160156 C 23.492188 -24.269531 23.601562 -24.269531 23.714844 -24.269531 C 23.9375 -24.269531 24.046875 -24.160156 24.046875 -24.046875 L 37.628906 -3.785156 C 38.410156 -2.671875 38.632812 -1.671875 38.296875 -1.113281 C 37.851562 -0.558594 37.296875 -0.222656 36.628906 -0.335938 C 36.40625 -0.335938 36.292969 -0.113281 36.292969 0.113281 C 36.292969 0.222656 36.40625 0.445312 36.628906 0.445312 L 47.984375 0.445312 C 48.207031 0.445312 48.429688 0.222656 48.429688 0.113281 C 48.429688 -0.113281 48.207031 -0.335938 47.984375 -0.335938 Z M 47.984375 -0.335938 "/></g></g></g><g fill="#000000" fill-opacity="1"><g transform="translate(220.721518, 104.074719)"><g><path d="M 57.890625 -44.867188 C 53.4375 -51.101562 46.535156 -55.332031 38.855469 -56.554688 C 31.171875 -57.78125 23.378906 -55.886719 17.144531 -51.324219 C 10.800781 -46.757812 6.570312 -39.855469 5.457031 -32.175781 C 4.230469 -24.605469 6.125 -16.699219 10.6875 -10.464844 C 16.144531 -2.894531 24.9375 1.558594 34.289062 1.558594 C 40.523438 1.558594 46.535156 -0.445312 51.433594 -4.007812 C 64.570312 -13.582031 67.355469 -31.839844 57.890625 -44.867188 Z M 50.988281 -4.675781 C 45.421875 -0.667969 38.410156 0.667969 31.730469 -0.890625 C 24.605469 -2.5625 18.257812 -6.792969 13.917969 -12.804688 C 13.917969 -12.914062 13.804688 -13.027344 13.695312 -13.027344 C 13.582031 -13.027344 13.472656 -13.027344 13.359375 -12.914062 L 11.023438 -11.246094 C 6.792969 -17.257812 5.011719 -24.828125 6.125 -32.0625 C 7.347656 -39.523438 11.46875 -46.3125 17.589844 -50.65625 C 23.15625 -54.664062 30.171875 -56 36.851562 -54.441406 C 44.085938 -52.769531 50.433594 -48.539062 54.664062 -42.527344 C 54.773438 -42.417969 54.886719 -42.304688 54.996094 -42.304688 C 54.996094 -42.304688 55.109375 -42.304688 55.21875 -42.417969 L 57.558594 -44.085938 C 66.464844 -31.394531 63.570312 -13.804688 50.988281 -4.675781 Z M 50.988281 -4.675781 "/></g></g></g><g fill="#000000" fill-opacity="1"><g transform="translate(276.941238, 104.074719)"><g><path d="M 91.070312 -0.335938 C 89.0625 -0.335938 87.394531 -2.003906 87.394531 -4.007812 L 87.394531 -37.296875 C 87.394531 -48.09375 78.597656 -56.890625 67.800781 -56.890625 C 60.007812 -56.890625 52.992188 -52.324219 49.765625 -45.3125 C 46.648438 -52.324219 39.632812 -56.890625 31.953125 -56.890625 C 22.601562 -56.890625 15.140625 -49.320312 15.140625 -40.078125 C 15.140625 -36.40625 16.367188 -32.84375 18.59375 -29.835938 C 19.371094 -28.835938 19.929688 -27.609375 19.929688 -26.386719 C 19.929688 -23.601562 17.589844 -21.375 14.808594 -21.375 C 13.582031 -21.375 12.46875 -22.378906 12.46875 -23.714844 L 12.46875 -56.445312 C 12.46875 -56.554688 12.46875 -56.667969 12.359375 -56.777344 C 12.246094 -56.890625 12.136719 -56.890625 12.023438 -56.890625 L 9.351562 -56.445312 L 5.234375 -55.777344 C 5.121094 -55.777344 4.898438 -55.554688 5.011719 -55.332031 C 5.011719 -55.109375 5.121094 -54.996094 5.34375 -54.996094 C 7.347656 -54.996094 9.019531 -53.328125 9.019531 -51.324219 C 9.019531 -51.324219 9.019531 -26.386719 9.019531 -26.386719 C 9.019531 -23.15625 11.691406 -20.597656 14.808594 -20.597656 C 18.035156 -20.597656 20.597656 -23.15625 20.597656 -26.386719 C 20.597656 -27.832031 20.152344 -29.167969 19.148438 -30.28125 C 17.035156 -33.066406 15.921875 -36.515625 15.921875 -40.078125 C 15.921875 -48.984375 23.046875 -56.109375 31.953125 -56.109375 C 40.859375 -56.109375 48.09375 -48.875 48.09375 -39.96875 L 48.09375 -37.742188 C 48.09375 -37.519531 48.09375 -37.40625 48.09375 -37.183594 C 48.09375 -37.183594 48.09375 -37.074219 48.09375 -37.074219 L 48.09375 -4.121094 C 48.09375 -4.121094 48.09375 -4.007812 48.09375 -4.007812 C 48.09375 -2.003906 46.425781 -0.335938 44.308594 -0.335938 C 44.199219 -0.335938 43.976562 -0.113281 43.976562 0 C 43.976562 0.222656 44.199219 0.445312 44.308594 0.445312 L 55.21875 0.445312 C 55.441406 0.445312 55.554688 0.222656 55.554688 0 C 55.554688 -0.113281 55.441406 -0.335938 55.21875 -0.335938 C 53.214844 -0.335938 51.546875 -2.003906 51.546875 -4.007812 L 51.546875 -37.296875 C 51.546875 -39.632812 51.101562 -42.082031 50.210938 -44.308594 C 53.105469 -51.433594 60.007812 -56.109375 67.800781 -56.109375 C 76.707031 -56.109375 83.941406 -48.875 83.941406 -39.96875 L 83.941406 -4.121094 C 83.941406 -4.121094 83.941406 -4.007812 83.941406 -4.007812 C 83.941406 -2.003906 82.273438 -0.335938 80.15625 -0.335938 C 80.046875 -0.335938 79.824219 -0.113281 79.824219 0 C 79.824219 0.222656 80.046875 0.445312 80.15625 0.445312 L 91.070312 0.445312 C 91.292969 0.445312 91.402344 0.222656 91.402344 0 C 91.402344 0 91.402344 -0.113281 91.292969 -0.222656 C 91.292969 -0.335938 91.179688 -0.335938 91.070312 -0.335938 Z M 16.144531 -0.335938 C 14.140625 -0.335938 12.46875 -2.003906 12.46875 -4.007812 L 12.46875 -18.480469 C 12.46875 -18.59375 12.46875 -18.59375 12.46875 -18.59375 C 12.46875 -18.59375 12.46875 -18.59375 12.46875 -18.703125 C 12.359375 -18.703125 12.359375 -18.703125 12.359375 -18.703125 C 12.246094 -18.703125 12.246094 -18.816406 12.246094 -18.816406 C 11.246094 -19.039062 10.464844 -19.484375 9.6875 -20.152344 C 9.574219 -20.152344 9.574219 -20.152344 9.574219 -20.152344 C 9.464844 -20.152344 9.464844 -20.152344 9.464844 -20.152344 C 9.464844 -20.152344 9.464844 -20.152344 9.351562 -20.152344 C 9.242188 -20.152344 9.242188 -20.152344 9.242188 -20.152344 C 9.242188 -20.152344 9.242188 -20.152344 9.128906 -20.152344 C 9.128906 -20.152344 9.128906 -20.039062 9.128906 -20.039062 C 9.128906 -20.039062 9.019531 -19.929688 9.019531 -19.929688 C 9.019531 -19.929688 9.019531 -19.929688 9.019531 -19.816406 C 9.019531 -19.816406 9.019531 -4.007812 9.019531 -4.007812 C 9.019531 -2.003906 7.347656 -0.335938 5.34375 -0.335938 C 5.121094 -0.335938 5.011719 -0.113281 5.011719 0 C 5.011719 0.222656 5.121094 0.445312 5.34375 0.445312 L 16.144531 0.445312 C 16.367188 0.445312 16.589844 0.222656 16.589844 0 C 16.589844 0 16.476562 -0.113281 16.476562 -0.222656 C 16.367188 -0.335938 16.253906 -0.335938 16.144531 -0.335938 Z M 16.144531 -0.335938 "/></g></g></g></svg>